# xmcd CD database file
#
# Track frame offsets:
#	150
#	24687
#	60357
#	84337
#	101015
#	120815
#	153085
#	178377
#	201572
#	233337
#	263155
#	284937
#	302840
#
# Disc length: 4311 seconds
#
# Revision: 0
# Processed by: cddbd v1.5PL3 Copyright (c) Steve Scherf et al.
# Submitted via: CDex 1.51
#
DISCID=ac10d50d
DTITLE=REE.K - Cubism
DYEAR=2001
DGENRE=Techno
TTITLE0=Clone Theory - Technollennium
TTITLE1=Taksi... - Blaulicht
TTITLE2=Bang Goes - B6
TTITLE3=Pantytec - Muffler
TTITLE4=Head Affect -Shift remix
TTITLE5=Ree.K - Planet#4
TTITLE6=Der Dritte Raum - Wellenbad
TTITLE7=Vanguard - Dort Wo Alles Begann...
TTITLE8=Ree.K - Hakko
TTITLE9=Organic Noise - Labyrinth Of Colors
TTITLE10=Magnet - Liberate
TTITLE11=Paul Brtschitsch - Cry
TTITLE12=juno Reactor - jardin de cecile
EXTD=YEAR: 2001
EXTT0=
EXTT1=
EXTT2=
EXTT3=
EXTT4=
EXTT5=
EXTT6=
EXTT7=
EXTT8=
EXTT9=
EXTT10=
EXTT11=
EXTT12=
PLAYORDER=
